# xmcd
#
# Track frame offsets: 
#        150
#        3228
#        18321
#        46320
#        57984
#        59334
#        76830
#        78828
#        89034
#        91167
#        105342
#        106152
#        110148
#        110823
#        125376
#        128076
#        149406
#        150540
#        162744
#        163365
#        174516
#        175191
#        184425
#        187584
#        198006
#        199815
#        209130
#        209859
#        225843
#        228192
#        245499
#        246012
#        253545
#        253977
#        261807
#        262779
#        275820
#        276927
#        289104
#        290130
#        308112
#        320910
#        321315
#        332169
#        334032
#
# Disc length: 4651 seconds
#
# Revision: 0
# Processed by: cddbd v1.5.2PL0 Copyright (c) Steve Scherf et al.
# Submitted via: ExactAudioCopy v0.95b3
#
DISCID=a312292d
DTITLE=The Beatles  - The Days In Their Life - Vol.11  FLAC
DYEAR=1900
DGENRE=
TTITLE0=Narrative
TTITLE1=Revolution
TTITLE2=Narrative
TTITLE3=S.S.R.
TTITLE4=Narrative
TTITLE5=Dear Prudence
TTITLE6=Narrative
TTITLE7=Glass Onion
TTITLE8=Narrative
TTITLE9=La-Di, Ob-La-Da
TTITLE10=Narrative
TTITLE11=Wild Honey Pie
TTITLE12=Narrative
TTITLE13=The Continuing Story Of Bungalow Bill
TTITLE14=Narrative
TTITLE15=While My Guitar Gently Weeps
TTITLE16=Narrative
TTITLE17=Happiness Is A Warm Gun
TTITLE18=Narrative
TTITLE19=Martha My Dear
TTITLE20=Narrative
TTITLE21=I'm So Tired
TTITLE22=Narrative
TTITLE23=Blackbird
TTITLE24=Narrative
TTITLE25=Piggies
TTITLE26=Narrative
TTITLE27=Rocky Raccoon
TTITLE28=Narrative
TTITLE29=Don't Pass Me By
TTITLE30=Narrative
TTITLE31=Why Don't We Do It In The Road
TTITLE32=Narrative
TTITLE33=I Will
TTITLE34=Narrative
TTITLE35=Julia
TTITLE36=Narrative
TTITLE37=Birthday
TTITLE38=Narrative
TTITLE39=Yer Blues
TTITLE40=Mother Nature's Son Narrative
TTITLE41=Narrative
TTITLE42=Everybody's Got Something To Hide Except Me And My Monkey
TTITLE43=Narrative
TTITLE44=Sexy Sadie
EXTD=
EXTT0=
EXTT1=
EXTT2=
EXTT3=
EXTT4=
EXTT5=
EXTT6=
EXTT7=
EXTT8=
EXTT9=
EXTT10=
EXTT11=
EXTT12=
EXTT13=
EXTT14=
EXTT15=
EXTT16=
EXTT17=
EXTT18=
EXTT19=
EXTT20=
EXTT21=
EXTT22=
EXTT23=
EXTT24=
EXTT25=
EXTT26=
EXTT27=
EXTT28=
EXTT29=
EXTT30=
EXTT31=
EXTT32=
EXTT33=
EXTT34=
EXTT35=
EXTT36=
EXTT37=
EXTT38=
EXTT39=
EXTT40=
EXTT41=
EXTT42=
EXTT43=
EXTT44=
PLAYORDER=
